<svg xmlns="http://www.w3.org/2000/svg" width="2688" height="392" viewBox="0 0 2688 392" fill="none"><path fill-rule="evenodd" clip-rule="evenodd" d="M640.762 43.5894C640.762 14.5055 624.787 0.0769043 593.797 0.0769043H47.7234C32.2338 0.0769043 20.856 3.97049 13.3507 11.9843C4.88067 20.0012 0.761963 30.3065 0.761963 43.5894V338.564C0.761963 351.847 4.88067 361.923 13.3507 370.166C22.067 378.183 33.2019 382.077 47.7234 382.077H593.797C624.787 382.077 640.762 367.425 640.762 338.568V43.5894ZM593.797 6.94814C619.453 6.94814 632.528 19.3151 632.528 43.5894V338.564C632.528 363.065 619.453 375.202 593.797 375.202H47.7234C35.3775 375.202 25.9394 371.768 18.9198 364.897C11.6574 358.252 8.02785 349.093 8.02785 338.561V43.5894C8.02785 19.3151 20.856 6.94814 47.7234 6.94814H593.797Z" fill="#315881"></path><path fill-rule="evenodd" clip-rule="evenodd" d="M52.0778 23.895C41.6716 23.895 35.1344 25.4971 31.5048 28.9344C28.3577 32.828 26.9072 39.2396 26.9072 48.6289V112.522H614.616V48.6289C614.616 31.912 605.896 23.895 588.471 23.895H52.0778Z" fill="#315881"></path><path fill-rule="evenodd" clip-rule="evenodd" d="M26.9072 332.609C26.9072 349.549 35.3772 358.256 52.0778 358.256H588.471C605.896 358.256 614.616 349.553 614.616 332.609V268.713H26.9072V332.609Z" fill="#DFA43B"></path><path fill-rule="evenodd" clip-rule="evenodd" d="M221.52 139.777C221.52 142.755 221.034 145.043 219.827 146.648L177.466 216.5L174.801 131.304H107.028L129.78 141.609C136.313 145.503 139.704 150.539 139.704 156.954L145.995 247.419H179.156L258.554 131.304H217.891C220.309 133.365 221.52 136.57 221.52 139.777ZM495.53 134.738L498.188 131.3H456.796C458.246 132.673 458.732 133.362 458.732 133.818C458.243 135.647 457.275 136.796 456.796 138.168L396.524 242.14C395.073 243.972 393.616 245.577 391.926 247.413H426.056L424.359 243.975C424.359 240.998 426.056 235.505 429.686 227.718L436.948 214.891H472.046C473.503 225.656 474.471 234.589 474.954 241.234L472.046 247.416H514.406L508.112 238.713L495.53 134.738ZM470.353 198.634H445.179L466.72 159.472L470.353 198.634ZM365.784 125.348C352.716 125.348 341.578 128.786 331.654 135.654C320.759 141.609 315.436 149.166 315.436 158.559C315.436 169.324 319.308 178.713 327.053 185.811L350.537 201.152C359.011 206.881 363.126 211.917 363.126 216.5C363.126 220.85 360.94 224.744 356.832 227.721C352.716 230.699 348.112 232.071 342.307 232.071C333.833 232.071 319.312 226.349 299.221 215.814V237.111C314.954 246.043 330.207 250.626 344.968 250.626C359.011 250.626 370.871 246.959 381.041 238.716C391.933 231.155 397.256 222.229 397.256 212.38C397.256 204.13 393.38 196.576 384.667 188.559L362.151 173.214C354.656 167.489 350.537 162.449 350.537 158.559C350.537 149.629 356.103 145.046 367.481 145.046C375.226 145.046 386.603 149.17 401.85 157.873L406.455 135.657C393.62 128.782 380.309 125.348 365.784 125.348ZM275.741 247.416C275.255 242.606 274.287 238.256 273.801 233.673L304.544 139.777L311.807 131.304H267.51C267.996 133.365 268.478 136.113 268.964 138.175C268.964 140.237 268.964 142.758 268.478 145.046L237.738 238.027L231.444 247.419L275.741 247.416Z" fill="#315881"></path><path d="M1060.94 200.471C1060.94 306.222 975.213 391.942 869.467 391.942C763.721 391.942 678 306.222 678 200.471C678 94.7291 763.719 9 869.467 9C975.213 9 1060.94 94.7291 1060.94 200.471Z" fill="#D9222A"></path><path d="M1126.52 9C1077.05 9 1031.97 27.7691 997.99 58.5648C991.071 64.84 984.608 71.6187 978.657 78.8272H1017.34C1022.63 85.2581 1027.5 92.0229 1031.94 99.1067H964.062C959.995 105.618 956.303 112.382 953.03 119.382H1042.96C1046.04 125.951 1048.75 132.711 1051.07 139.653H944.925C942.711 146.257 940.849 153.017 939.36 159.928H1056.63C1059.44 172.995 1060.94 186.559 1060.94 200.47C1060.94 221.733 1057.47 242.189 1051.07 261.292H944.924C947.244 268.238 949.955 275.003 953.026 281.567H1042.96C1039.68 288.568 1036 295.332 1031.93 301.847H964.061C968.492 308.919 973.372 315.692 978.657 322.109H1017.33C1011.39 329.332 1004.92 336.119 997.995 342.39C1031.98 373.18 1077.05 391.941 1126.52 391.941C1232.27 391.942 1318 306.222 1318 200.471C1318 94.7333 1232.27 9 1126.52 9Z" fill="#EE9F2D"></path><path d="M1292.48 307.201C1292.48 303.787 1295.24 301.013 1298.66 301.013C1302.08 301.013 1304.84 303.787 1304.84 307.201C1304.84 310.613 1302.08 313.387 1298.66 313.387C1295.24 313.387 1292.48 310.613 1292.48 307.201ZM1298.66 311.902C1301.26 311.902 1303.36 309.796 1303.36 307.201C1303.36 304.6 1301.26 302.503 1298.66 302.503C1296.06 302.503 1293.96 304.601 1293.96 307.201C1293.96 309.796 1296.06 311.902 1298.66 311.902ZM1297.83 309.919H1296.56V304.484H1298.85C1299.33 304.484 1299.82 304.484 1300.24 304.755C1300.68 305.052 1300.93 305.577 1300.93 306.119C1300.93 306.728 1300.57 307.297 1299.99 307.519L1300.99 309.919H1299.59L1298.76 307.768H1297.83V309.919H1297.83ZM1297.83 306.836H1298.53C1298.79 306.836 1299.07 306.858 1299.3 306.729C1299.51 306.596 1299.62 306.346 1299.62 306.106C1299.62 305.898 1299.49 305.657 1299.31 305.555C1299.09 305.417 1298.74 305.447 1298.5 305.447H1297.83V306.836Z" fill="black"></path><path d="M824.759 221.435C822.577 221.181 821.618 221.114 820.119 221.114C808.337 221.114 802.372 225.155 802.372 233.133C802.372 238.053 805.283 241.181 809.825 241.181C818.293 241.181 824.395 233.12 824.759 221.435ZM839.875 256.631H822.653L823.049 248.443C817.794 254.914 810.786 257.99 801.261 257.99C789.994 257.99 782.27 249.19 782.27 236.412C782.27 217.187 795.706 205.969 818.768 205.969C821.123 205.969 824.146 206.181 827.238 206.577C827.883 203.973 828.052 202.857 828.052 201.457C828.052 196.221 824.43 194.27 814.719 194.27C804.55 194.155 796.163 196.693 792.719 197.826C792.937 196.515 795.599 180.056 795.599 180.056C805.958 177.02 812.789 175.878 820.479 175.878C838.326 175.878 847.781 183.892 847.763 199.037C847.798 203.096 847.126 208.104 846.079 214.686C844.275 226.134 840.404 250.653 839.875 256.631Z" fill="black"></path><path d="M773.573 256.631H752.787L764.693 181.969L738.107 256.631H723.942L722.191 182.395L709.676 256.631H690.218L706.47 159.506H736.36L738.173 213.87L756.404 159.506H789.649L773.573 256.631Z" fill="black"></path><path d="M1152.21 221.435C1150.04 221.181 1149.08 221.114 1147.58 221.114C1135.8 221.114 1129.84 225.155 1129.84 233.133C1129.84 238.053 1132.75 241.181 1137.29 241.181C1145.76 241.181 1151.86 233.12 1152.21 221.435ZM1167.34 256.631H1150.12L1150.51 248.443C1145.26 254.914 1138.24 257.99 1128.73 257.99C1117.46 257.99 1109.74 249.19 1109.74 236.412C1109.74 217.187 1123.17 205.969 1146.23 205.969C1148.59 205.969 1151.61 206.181 1154.7 206.577C1155.34 203.973 1155.51 202.857 1155.51 201.457C1155.51 196.221 1151.89 194.27 1142.18 194.27C1132.01 194.155 1123.64 196.693 1120.18 197.826C1120.39 196.515 1123.07 180.056 1123.07 180.056C1133.43 177.02 1140.25 175.878 1147.93 175.878C1165.79 175.878 1175.24 183.892 1175.23 199.037C1175.26 203.096 1174.59 208.104 1173.54 214.686C1171.75 226.134 1167.87 250.653 1167.34 256.631Z" fill="black"></path><path d="M932.257 255.431C926.568 257.222 922.133 257.99 917.324 257.99C906.698 257.99 900.898 251.883 900.898 240.638C900.747 237.149 902.427 227.967 903.747 219.586C904.947 212.207 912.759 165.688 912.759 165.688H933.422L931.008 177.643H943.488L940.67 196.626H928.145C925.745 211.647 922.327 230.359 922.288 232.839C922.288 236.909 924.461 238.687 929.404 238.687C931.773 238.687 933.607 238.446 935.008 237.941L932.257 255.431Z" fill="black"></path><path d="M995.609 254.791C988.511 256.961 981.662 258.009 974.404 257.991C951.275 257.969 939.218 245.889 939.218 222.756C939.218 195.755 954.556 175.88 975.377 175.88C992.413 175.88 1003.29 187.009 1003.29 204.462C1003.29 210.253 1002.55 215.907 1000.75 223.889H959.6C958.208 235.346 965.541 240.12 977.559 240.12C984.956 240.12 991.627 238.596 999.044 235.146L995.609 254.791ZM983.995 207.964C984.11 206.319 986.187 193.866 974.381 193.866C967.799 193.866 963.092 198.884 961.177 207.964H983.995Z" fill="black"></path><path d="M852.342 202.613C852.342 212.604 857.187 219.494 868.174 224.667C876.592 228.622 877.893 229.797 877.893 233.382C877.893 238.307 874.182 240.53 865.956 240.53C859.756 240.53 853.987 239.561 847.334 237.413C847.334 237.413 844.601 254.822 844.476 255.654C849.201 256.685 853.414 257.64 866.107 257.991C888.041 257.991 898.17 249.64 898.17 231.591C898.17 220.738 893.929 214.369 883.517 209.581C874.801 205.581 873.802 204.689 873.802 201C873.802 196.729 877.254 194.551 883.974 194.551C888.054 194.551 893.628 194.986 898.908 195.737L901.868 177.417C896.485 176.564 888.325 175.879 883.574 175.879C860.32 175.88 852.271 188.026 852.342 202.613Z" fill="black"></path><path d="M1096.7 177.956C1102.47 177.956 1107.86 179.471 1115.27 183.205L1118.68 162.124C1115.63 160.928 1104.91 153.911 1095.83 153.911C1081.92 153.911 1070.16 160.813 1061.89 172.204C1049.83 168.208 1044.87 176.284 1038.79 184.329L1033.39 185.587C1033.8 182.938 1034.16 180.307 1034.04 177.644H1014.95C1012.34 202.089 1007.72 226.847 1004.1 251.324L1003.16 256.632H1023.95C1027.43 234.079 1029.33 219.64 1030.48 209.867L1038.31 205.511C1039.48 201.161 1043.14 199.689 1050.49 199.867C1049.53 205.022 1049.02 210.444 1049.02 216.063C1049.02 241.903 1062.96 257.992 1085.34 257.992C1091.1 257.992 1096.05 257.232 1103.71 255.157L1107.36 233.014C1100.47 236.406 1094.82 238.002 1089.7 238.002C1077.62 238.002 1070.31 229.081 1070.31 214.339C1070.31 192.951 1081.18 177.956 1096.7 177.956Z" fill="black"></path><path d="M779.555 250.862H758.765L770.681 176.209L744.093 250.862H729.924L728.173 176.635L715.658 250.862H696.201L712.453 153.751H742.342L743.183 213.87L763.347 153.751H795.632L779.555 250.862Z" fill="white"></path><path d="M1272.69 159.507L1268.08 187.57C1262.4 180.089 1256.29 174.676 1248.23 174.676C1237.74 174.676 1228.19 182.628 1221.94 194.329C1213.24 192.524 1204.24 189.462 1204.24 189.462L1204.24 189.533C1204.94 182.99 1205.22 179 1205.16 177.644H1186.06C1183.46 202.089 1178.84 226.848 1175.23 251.324L1174.28 256.632H1195.07C1197.88 238.396 1200.03 223.254 1201.61 211.244C1208.71 204.827 1212.27 199.227 1219.44 199.601C1216.27 207.285 1214.4 216.138 1214.4 225.219C1214.4 244.966 1224.39 257.992 1239.51 257.992C1247.12 257.992 1252.97 255.366 1258.67 249.276L1257.7 256.619H1277.36L1293.19 159.508H1272.69V159.507ZM1246.69 238.377C1239.62 238.377 1236.04 233.142 1236.04 222.808C1236.04 207.284 1242.73 196.275 1252.16 196.275C1259.31 196.275 1263.17 201.719 1263.17 211.751C1263.17 227.409 1256.38 238.377 1246.69 238.377Z" fill="black"></path><path d="M830.738 215.679C828.56 215.428 827.596 215.361 826.102 215.361C814.32 215.361 808.359 219.4 808.359 227.378C808.359 232.289 811.27 235.428 815.804 235.428C824.281 235.427 830.383 227.365 830.738 215.679ZM845.861 250.862H828.639L829.03 242.689C823.781 249.146 816.764 252.235 807.248 252.235C795.977 252.235 788.256 243.435 788.256 230.658C788.256 211.422 801.687 200.213 824.754 200.213C827.109 200.213 830.132 200.426 833.221 200.822C833.866 198.218 834.035 197.102 834.035 195.693C834.035 190.457 830.417 188.516 820.706 188.516C810.533 188.401 802.15 190.938 798.702 192.058C798.919 190.752 801.582 174.312 801.582 174.312C811.937 171.263 818.777 170.121 826.457 170.121C844.309 170.121 853.767 178.139 853.75 193.272C853.781 197.348 853.106 202.353 852.061 208.925C850.261 220.364 846.387 244.898 845.861 250.862Z" fill="white"></path><path d="M1124.66 156.364L1121.26 177.449C1113.84 173.72 1108.46 172.201 1102.69 172.201C1087.17 172.201 1076.29 187.196 1076.29 208.582C1076.29 223.324 1083.6 232.241 1095.69 232.241C1100.81 232.241 1106.45 230.649 1113.34 227.254L1109.69 249.387C1102.03 251.476 1097.09 252.236 1091.32 252.236C1068.95 252.236 1055 236.147 1055 210.307C1055 175.587 1074.26 151.32 1101.81 151.32C1110.89 151.32 1121.61 155.169 1124.66 156.364Z" fill="white"></path><path d="M1158.2 215.679C1156.02 215.428 1155.06 215.361 1153.56 215.361C1141.79 215.361 1135.82 219.4 1135.82 227.378C1135.82 232.289 1138.73 235.428 1143.27 235.428C1151.74 235.427 1157.84 227.365 1158.2 215.679ZM1173.32 250.862H1156.1L1156.49 242.689C1151.24 249.146 1144.23 252.235 1134.71 252.235C1123.44 252.235 1115.72 243.435 1115.72 230.658C1115.72 211.422 1129.16 200.213 1152.21 200.213C1154.57 200.213 1157.59 200.426 1160.68 200.822C1161.32 198.218 1161.5 197.102 1161.5 195.693C1161.5 190.457 1157.88 188.516 1148.17 188.516C1138 188.401 1129.61 190.938 1126.16 192.058C1126.38 190.752 1129.05 174.312 1129.05 174.312C1139.4 171.263 1146.24 170.121 1153.92 170.121C1171.78 170.121 1181.23 178.139 1181.21 193.272C1181.24 197.348 1180.57 202.353 1179.52 208.925C1177.73 220.364 1173.84 244.898 1173.32 250.862Z" fill="white"></path><path d="M938.24 249.667C932.546 251.458 928.111 252.235 923.307 252.235C912.681 252.235 906.881 246.129 906.881 234.884C906.734 231.386 908.415 222.212 909.734 213.831C910.929 206.443 918.742 159.928 918.742 159.928H939.401L936.991 171.887H947.595L944.772 190.861H934.132C931.732 205.893 928.305 224.59 928.27 227.075C928.27 231.16 930.447 232.923 935.386 232.923C937.755 232.923 939.586 232.693 940.99 232.186L938.24 249.667Z" fill="white"></path><path d="M1001.59 249.035C994.497 251.204 987.639 252.248 980.386 252.235C957.257 252.213 945.2 240.133 945.2 217C945.2 189.991 960.538 170.12 981.359 170.12C998.395 170.12 1009.27 181.244 1009.27 198.707C1009.27 204.503 1008.53 210.155 1006.73 218.134H965.586C964.194 229.591 971.527 234.37 983.546 234.37C990.938 234.37 997.613 232.84 1005.03 229.382L1001.59 249.035ZM989.973 202.196C990.097 200.555 992.17 188.098 980.359 188.098C973.781 188.098 969.075 193.129 967.159 202.196H989.973Z" fill="white"></path><path d="M858.324 196.857C858.324 206.847 863.169 213.729 874.156 218.91C882.574 222.867 883.875 224.044 883.875 227.627C883.875 232.551 880.16 234.773 871.941 234.773C865.738 234.773 859.968 233.804 853.31 231.657C853.31 231.657 850.586 249.066 850.461 249.898C855.177 250.93 859.394 251.871 872.087 252.235C894.025 252.235 904.15 243.884 904.15 225.839C904.15 214.981 899.915 208.613 889.498 203.827C880.786 199.817 879.777 198.937 879.777 195.244C879.777 190.978 883.239 188.781 889.955 188.781C894.031 188.781 899.604 189.23 904.893 189.981L907.849 171.657C902.47 170.804 894.31 170.12 889.559 170.12C866.302 170.12 858.257 182.258 858.324 196.857Z" fill="white"></path><path d="M1283.34 250.862H1263.67L1264.65 243.51C1258.95 249.608 1253.11 252.235 1245.49 252.235C1230.38 252.235 1220.39 239.208 1220.39 219.462C1220.39 193.19 1235.88 171.044 1254.21 171.044C1262.28 171.044 1268.38 174.337 1274.06 181.813L1278.67 153.751H1299.17L1283.34 250.862ZM1252.68 232.613C1262.36 232.613 1269.16 221.644 1269.16 205.996C1269.16 195.964 1265.29 190.52 1258.15 190.52C1248.72 190.52 1242.02 201.524 1242.02 217.053C1242.02 227.386 1245.6 232.613 1252.68 232.613Z" fill="white"></path><path d="M1192.05 171.889C1189.44 196.333 1184.82 221.094 1181.21 245.556L1180.26 250.864H1201.05C1208.48 202.57 1210.28 193.139 1221.94 194.321C1223.8 184.436 1227.26 175.779 1229.83 171.41C1221.13 169.596 1216.27 174.517 1209.9 183.863C1210.4 179.822 1211.32 175.898 1211.14 171.89H1192.05" fill="white"></path><path d="M1020.93 171.889C1018.32 196.333 1013.7 221.094 1010.09 245.556L1009.14 250.864H1029.94C1037.37 202.57 1039.16 193.139 1050.82 194.321C1052.68 184.436 1056.14 175.779 1058.71 171.41C1050.01 169.596 1045.14 174.517 1038.79 183.863C1039.29 179.822 1040.2 175.898 1040.02 171.89H1020.93" fill="white"></path><path d="M1292.47 244.679C1292.47 241.253 1295.24 238.493 1298.65 238.493C1302.07 238.493 1304.84 241.253 1304.84 244.679C1304.84 248.088 1302.07 250.862 1298.65 250.862C1295.24 250.862 1292.47 248.089 1292.47 244.679ZM1298.65 249.378C1301.25 249.378 1303.35 247.271 1303.35 244.68C1303.35 242.085 1301.25 239.978 1298.65 239.978C1296.06 239.978 1293.95 242.086 1293.95 244.68C1293.95 247.271 1296.06 249.378 1298.65 249.378ZM1297.82 247.382H1296.55V241.961H1298.85C1299.32 241.961 1299.82 241.97 1300.23 242.232C1300.67 242.534 1300.93 243.049 1300.93 243.591C1300.93 244.204 1300.57 244.777 1299.98 244.996L1300.98 247.381H1299.58L1298.74 245.239H1297.82L1297.82 247.382ZM1297.82 244.311H1298.51C1298.78 244.311 1299.06 244.33 1299.29 244.204C1299.5 244.071 1299.61 243.818 1299.61 243.577C1299.61 243.377 1299.48 243.138 1299.3 243.018C1299.08 242.894 1298.72 242.93 1298.49 242.93H1297.82L1297.82 244.311Z" fill="white"></path><path fill-rule="evenodd" clip-rule="evenodd" d="M2093.12 5C2068.21 5 2048 23.7798 2048 46.9392V345.061C2048 368.225 2068.2 387 2093.12 387H2642.88C2667.79 387 2688 368.22 2688 345.061V46.9392C2688 23.7752 2667.8 5 2642.88 5H2093.12Z" fill="#4D4D4D"></path><path fill-rule="evenodd" clip-rule="evenodd" d="M2316.43 128.439C2323.68 128.439 2329.76 129.8 2337.17 133.083V150.43C2330.15 144.435 2324.07 141.925 2316.03 141.925C2300.23 141.925 2287.79 153.374 2287.79 167.888C2287.79 183.194 2299.84 193.961 2316.82 193.961C2324.46 193.961 2330.43 191.582 2337.17 185.683V203.039C2329.5 206.196 2323.29 207.443 2316.03 207.443C2290.37 207.443 2270.43 190.214 2270.43 167.995C2270.43 146.016 2290.9 128.439 2316.43 128.439ZM2236.75 128.917C2246.22 128.917 2254.89 131.754 2262.14 137.3L2253.32 147.401C2248.93 143.096 2244.78 141.28 2239.73 141.28C2232.47 141.28 2227.18 144.898 2227.18 149.659C2227.18 153.741 2230.14 155.902 2240.26 159.176C2259.43 165.31 2265.11 170.748 2265.11 182.757C2265.11 197.391 2252.82 207.577 2235.31 207.577C2222.49 207.577 2213.16 203.159 2205.4 193.188L2216.28 184.015C2220.16 190.58 2226.64 194.097 2234.68 194.097C2242.2 194.097 2247.76 189.559 2247.76 183.434C2247.76 180.259 2246.08 177.537 2242.71 175.613C2241.01 174.702 2237.66 173.343 2231.06 171.307C2215.23 166.322 2209.8 160.993 2209.8 150.579C2209.8 138.208 2221.46 128.917 2236.75 128.917ZM2429.34 130.235H2447.75L2470.8 181.01L2494.14 130.235H2512.41L2475.08 207.768H2466.01L2429.34 130.235ZM2103.31 130.351H2128.05C2155.39 130.351 2174.44 145.892 2174.44 168.201C2174.44 179.325 2168.61 190.081 2158.75 197.218C2150.46 203.243 2141.01 205.945 2127.92 205.945H2103.31V130.351ZM2182.19 130.351H2199.05V205.945H2182.19V130.351ZM2520.03 130.351H2567.82V143.16H2536.87V159.939H2566.68V172.741H2536.87V193.147H2567.82V205.945H2520.03L2520.03 130.351ZM2578.99 130.351H2603.98C2623.41 130.351 2634.55 138.517 2634.55 152.67C2634.55 164.244 2627.57 171.839 2614.87 174.099L2642.07 205.945H2621.34L2598.02 175.577H2595.82V205.945H2578.99V130.351ZM2595.82 142.258V165.151H2600.75C2611.51 165.151 2617.21 161.063 2617.21 153.464C2617.21 146.107 2611.51 142.258 2601.01 142.258H2595.82ZM2120.16 143.16V193.147H2124.68C2135.57 193.147 2142.45 191.321 2147.74 187.139C2153.57 182.598 2157.08 175.347 2157.08 168.092C2157.08 160.849 2153.57 153.815 2147.74 149.273C2142.18 144.866 2135.57 143.16 2124.68 143.16H2120.16Z" fill="white"></path><path fill-rule="evenodd" clip-rule="evenodd" d="M2388.62 127.919C2414.01 127.919 2434.59 145.898 2434.59 168.108V168.133C2434.59 190.344 2414.01 208.348 2388.62 208.348C2363.23 208.348 2342.65 190.343 2342.65 168.133V168.108C2342.65 145.897 2363.23 127.918 2388.62 127.918L2388.62 127.919ZM2687.98 224.867C2666.61 238.843 2506.58 338.735 2229.52 386.985H2642.86C2667.78 386.985 2687.99 368.205 2687.99 345.046V224.864L2687.98 224.867Z" fill="#F47216"></path><path d="M2003 358.255C2003 376.339 1986.06 390.999 1965.17 390.999H1400.83C1379.94 391 1363 376.339 1363 358.255V41.7434C1363 23.6602 1379.94 9 1400.83 9H1965.17C1986.06 9 2003 23.6602 2003 41.7434V358.255Z" fill="#306FC5"></path><path opacity="0.15" d="M1389.9 358.254V41.7434C1389.9 23.6602 1406.84 9 1427.73 9H1400.83C1379.94 9 1363 23.6591 1363 41.7434V358.256C1363 376.34 1379.94 391 1400.83 391H1427.73C1406.84 391 1389.9 376.339 1389.9 358.254Z" fill="#202121"></path><path d="M1456.24 161.863H1475.36L1465.8 140.799L1456.24 161.863Z" fill="white"></path><path d="M1557.93 232.571V242.352H1590.09V252.886H1557.93V264.173H1593.57L1610.08 248.372L1594.44 232.571H1557.93Z" fill="white"></path><path d="M1809.12 140.799L1798.69 161.863H1818.68L1809.12 140.799Z" fill="white"></path><path d="M1650.94 270.185V227.307L1628.34 248.372L1650.94 270.185Z" fill="white"></path><path d="M1693.53 239.345C1692.66 234.831 1689.18 232.571 1683.96 232.571H1665.71V246.112H1684.83C1690.05 246.113 1693.53 243.857 1693.53 239.345Z" fill="white"></path><path d="M1754.36 244.611C1756.1 243.857 1756.97 241.598 1756.97 239.346C1757.84 236.339 1756.1 234.832 1754.36 234.08C1752.63 233.327 1750.02 233.327 1747.41 233.327H1730.03V245.364H1747.41C1750.02 245.364 1752.63 245.364 1754.36 244.611Z" fill="white"></path><path d="M1879.52 121.239V130.266L1874.31 121.239H1833.46V130.266L1828.24 121.239H1772.62C1763.06 121.239 1755.23 122.745 1748.28 125.754V121.239H1709.17V121.992V125.754C1704.83 122.746 1699.61 121.239 1692.66 121.239H1552.72L1543.15 140.046L1533.59 121.239H1502.31H1489.27V130.266L1484.92 121.239H1484.05H1446.68L1429.29 156.594L1409.3 194.959L1408.93 195.713H1409.3H1453.63H1454.19L1454.5 194.959L1459.72 183.677H1471.02L1476.23 195.713H1526.64V194.959V186.686L1530.99 195.712H1556.19L1560.54 186.686V194.959V195.713H1580.53H1680.48H1681.35V176.153H1683.1C1684.83 176.153 1684.83 176.153 1684.83 178.411V194.96H1747.41V190.446C1752.63 192.706 1760.45 194.96 1770.88 194.96H1796.96L1802.17 182.926H1814.34L1819.55 194.96H1869.96V187.439V183.678L1877.79 194.96H1879.52H1880.39H1918.64V121.239H1879.52H1879.52ZM1584.88 184.431H1576.18H1570.97V179.921V143.056L1570.1 144.781V144.761L1549.88 184.431H1549.24H1544.59H1537.07L1516.21 143.056V184.431H1486.66L1480.58 173.147H1451.02L1444.94 184.431H1429.66L1455.37 131.772H1477.1L1501.43 182.172V131.772H1506.65H1524.46L1524.87 132.526H1524.9L1535.87 153.183L1543.74 168.66L1544.02 167.88L1561.4 131.773H1584.87V184.431H1584.88ZM1644.85 143.056H1610.95V152.835H1643.98V163.365H1610.95V173.9H1644.85V185.181H1596.18V131.773H1644.85V143.056ZM1706.84 162.453C1706.87 162.471 1706.9 162.482 1706.92 162.499C1707.25 162.799 1707.53 163.101 1707.77 163.39C1709.44 165.279 1710.79 168.089 1710.85 172.208C1710.86 172.28 1710.86 172.35 1710.87 172.421C1710.87 172.463 1710.87 172.498 1710.87 172.54C1710.87 172.564 1710.87 172.583 1710.87 172.605C1710.89 173.02 1710.91 173.443 1710.91 173.9V184.432H1697.87V178.412C1697.87 175.403 1697.87 170.888 1695.26 167.88C1694.44 167.169 1693.61 166.701 1692.7 166.367C1691.4 165.637 1688.93 165.625 1684.83 165.625H1669.18V184.432H1654.41V131.773H1687.44C1695.26 131.773 1700.48 131.773 1704.82 134.03C1709.08 136.243 1711.66 139.914 1711.75 145.727C1711.55 153.732 1705.61 158.125 1701.34 159.606C1701.34 159.606 1704.24 160.111 1706.84 162.453ZM1736.11 184.431H1721.34V131.772H1736.11V184.431ZM1905.6 184.431H1886.48L1858.67 144.559V177.659L1858.57 177.581V184.464H1843.89V184.432H1829.11L1823.9 173.148H1793.48L1788.26 185.182H1771.75C1764.8 185.182 1756.1 183.679 1750.89 179.166C1745.67 174.652 1743.07 168.634 1743.07 158.856C1743.07 151.334 1744.8 143.806 1750.89 137.79C1755.23 133.274 1763.06 131.773 1772.61 131.773H1786.53V143.056H1772.61C1767.4 143.056 1764.8 143.805 1761.31 146.066C1758.71 148.322 1756.97 152.835 1756.97 158.1C1756.97 164.119 1757.84 167.88 1761.31 170.888C1763.93 173.148 1767.4 173.901 1771.75 173.901H1777.83L1797.82 132.528H1806.52H1819.55L1843.89 182.928V180.358V163.367V161.865V132.529H1865.62L1890.82 169.388V132.529H1905.6V184.433H1905.6V184.431Z" fill="white"></path><path d="M1694.45 153.704C1694.7 153.47 1694.93 153.203 1695.13 152.898C1695.92 151.82 1696.82 149.877 1696.33 147.225C1696.31 146.982 1696.26 146.757 1696.2 146.539C1696.19 146.479 1696.19 146.426 1696.17 146.365L1696.16 146.366C1695.73 145.078 1694.62 144.286 1693.52 143.805C1691.78 143.056 1689.17 143.056 1686.57 143.056H1669.18V155.093H1686.57C1689.17 155.093 1691.78 155.093 1693.52 154.339C1693.78 154.225 1694.02 154.069 1694.24 153.893L1694.24 153.902C1694.24 153.902 1694.33 153.821 1694.45 153.704Z" fill="white"></path><path d="M1956.88 259.658C1956.88 254.392 1955.15 249.125 1952.54 245.364V211.514H1952.5V209.254C1952.5 209.254 1916.07 209.254 1910.65 209.254C1905.23 209.254 1898.65 213.767 1898.65 213.767V209.254H1858.67C1852.58 209.254 1844.76 210.76 1841.28 213.767V209.254H1770.01V211.514V213.765C1764.8 210.007 1755.23 209.253 1750.89 209.253H1703.95V211.513V213.764C1699.61 210.006 1689.17 209.252 1683.96 209.252H1631.81L1619.64 220.537L1608.34 209.252H1604.7H1598.78H1530.12V211.512V217.455V285.234H1606.61L1619.17 274.354L1630.07 285.234H1630.94H1675.01H1677.01H1677.88H1678.75V277.712V267.933H1683.09C1689.17 267.933 1697 267.933 1703.08 265.673V284.477V285.986H1742.2V284.477V266.426H1743.93C1746.54 266.426 1746.54 266.426 1746.54 268.682V284.477V285.986H1864.75C1872.57 285.986 1880.39 284.477 1884.74 281.469V284.477V285.986H1922.11C1929.93 285.986 1937.76 285.234 1942.98 282.223C1950.98 278.068 1956.02 270.712 1956.77 261.939C1956.81 261.68 1956.85 261.42 1956.88 261.159L1956.83 261.117C1956.86 260.63 1956.88 260.149 1956.88 259.658ZM1683.1 255.145H1665.71V257.397V261.912V266.427V274.702H1637.14L1620.51 258.151L1620.45 258.206L1619.64 257.397L1600.52 274.702H1544.89V222.045H1601.39L1616.83 236.677L1620.07 239.741L1620.51 239.346L1638.77 222.046H1684.83C1693.77 222.046 1703.78 223.955 1707.58 231.828C1708.03 233.387 1708.3 235.12 1708.3 237.089C1708.3 252.133 1696.13 255.145 1683.1 255.145ZM1770.01 254.391C1771.75 256.643 1772.62 259.657 1772.62 264.172V274.701H1757.84V267.933C1757.84 264.919 1757.84 259.657 1755.23 257.397C1753.5 255.145 1750.02 255.145 1744.81 255.145H1729.16V274.702H1714.39V221.292H1747.41C1754.36 221.292 1760.45 221.292 1764.8 223.546C1769.14 225.805 1772.62 229.567 1772.62 235.585C1772.62 243.858 1766.54 248.372 1762.19 249.879C1766.54 251.377 1769.14 252.886 1770.01 254.391ZM1829.99 232.571H1796.08V242.351H1829.11V252.885H1796.08V263.418H1829.99V274.701H1781.31V221.291H1829.99V232.571ZM1866.49 274.702H1838.67V263.419H1866.49C1869.09 263.419 1870.83 263.419 1872.58 261.913C1873.45 261.159 1874.31 259.658 1874.31 258.152C1874.31 256.644 1873.45 255.146 1872.58 254.392C1871.7 253.64 1869.96 252.887 1867.36 252.887C1853.45 252.134 1836.94 252.887 1836.94 236.339C1836.94 228.816 1842.15 220.54 1857.8 220.54H1886.48V233.326H1859.54C1856.93 233.326 1855.19 233.326 1853.45 234.079C1851.71 234.833 1851.71 236.339 1851.71 237.842C1851.71 240.1 1853.45 240.853 1855.19 241.599C1856.93 242.353 1858.67 242.353 1860.4 242.353H1868.23C1876.05 242.353 1881.26 243.858 1884.74 246.868C1887.35 249.126 1889.09 252.887 1889.09 258.152C1889.09 269.432 1881.26 274.702 1866.49 274.702ZM1941.24 269.432C1937.77 272.445 1931.68 274.702 1922.98 274.702H1895.18V263.419H1922.98C1925.59 263.419 1927.33 263.419 1929.07 261.913C1929.94 261.159 1930.81 259.658 1930.81 258.152C1930.81 256.644 1929.94 255.146 1929.07 254.392C1928.2 253.64 1926.46 252.887 1923.85 252.887C1909.95 252.134 1893.43 252.887 1893.43 236.34C1893.43 229.19 1898.16 222.732 1909.82 220.814C1911.21 220.647 1912.68 220.54 1914.29 220.54H1942.98V233.326H1923.85H1916.9H1916.03C1913.42 233.326 1911.69 233.326 1909.95 234.079C1909.08 234.833 1908.21 236.339 1908.21 237.842C1908.21 240.1 1909.08 240.853 1911.69 241.599C1913.42 242.353 1915.16 242.353 1916.9 242.353H1917.77H1924.72C1928.52 242.353 1931.39 242.759 1934.02 243.559C1936.43 244.313 1944.4 247.398 1946.18 255.452C1946.34 256.296 1946.45 257.177 1946.45 258.152C1946.45 262.666 1944.71 266.427 1941.24 269.432Z" fill="white"></path></svg>