<svg xmlns="http://www.w3.org/2000/svg" width="104" height="54" viewBox="0 0 104 54" fill="none"><path d="M0.0527344 7.6556L4.38607 0.572266H5.2194L6.69857 7.6556H5.80273L5.4694 6.05143H2.05273L1.05273 7.6556H0.0527344ZM2.55273 5.2181H5.30273L4.5944 1.82227L2.55273 5.2181Z" fill="#F8F3EB"></path><path d="M10.4102 7.6556L11.8268 0.572266H12.5977L14.556 4.7806L18.1602 0.572266H19.0143L17.6185 7.6556H16.7018L17.306 4.63477L17.806 2.30143L14.806 5.7806H14.0768L12.431 2.23893L11.931 4.63477L11.3268 7.6556H10.4102Z" fill="#F8F3EB"></path><path d="M19.6699 7.6556L21.0866 0.572266H25.3783L25.2324 1.4056H21.8366L21.3783 3.63477H24.5241L24.3574 4.4681H21.2116L20.7533 6.82227H24.2324L24.0866 7.6556H19.6699Z" fill="#F8F3EB"></path><path d="M25.7656 7.6556L27.1823 0.572266H27.9531L29.9115 4.7806L33.5156 0.572266H34.3698L32.974 7.6556H32.0573L32.6615 4.63477L33.1615 2.30143L30.1615 5.7806H29.4323L27.7865 2.23893L27.2865 4.63477L26.6823 7.6556H25.7656Z" fill="#F8F3EB"></path><path d="M35.0449 7.6556L36.4408 0.572266H39.1491C39.5918 0.572266 39.9668 0.655599 40.2741 0.822266C40.5762 0.988932 40.8001 1.2181 40.9408 1.50977C41.0762 1.80143 41.1074 2.14518 41.0241 2.5306C40.9512 2.86393 40.8158 3.16602 40.6074 3.42643C40.4095 3.67643 40.1543 3.87435 39.8366 4.00977C40.1699 4.16602 40.3991 4.39518 40.5241 4.69727C40.6595 4.98893 40.6908 5.33789 40.6074 5.73893C40.4824 6.33789 40.1908 6.81185 39.7324 7.1556C39.2741 7.48893 38.6751 7.6556 37.9408 7.6556H35.0449ZM36.1074 6.82227H38.0033C38.4616 6.82227 38.8366 6.71289 39.1283 6.48893C39.4303 6.27018 39.6283 5.96289 39.7116 5.57227C39.7793 5.22852 39.7168 4.95768 39.5241 4.75977C39.3262 4.55143 39.0033 4.44727 38.5449 4.44727H36.5866L36.1074 6.82227ZM36.7533 3.63477H38.5241C38.9512 3.63477 39.3053 3.54102 39.5866 3.3431C39.8626 3.13477 40.0345 2.85352 40.1074 2.48893C40.1751 2.14518 40.1178 1.87956 39.9408 1.69727C39.7585 1.50456 39.4512 1.4056 39.0241 1.4056H37.1908L36.7533 3.63477Z" fill="#F8F3EB"></path><path d="M41.8086 7.6556L43.2253 0.572266H47.5169L47.3711 1.4056H43.9753L43.5169 3.63477H46.6628L46.4961 4.4681H43.3503L42.8919 6.82227H46.3711L46.2253 7.6556H41.8086Z" fill="#F8F3EB"></path><path d="M47.9043 7.6556L49.321 0.572266H51.9043C52.4147 0.572266 52.847 0.676432 53.196 0.884766C53.5397 1.08268 53.7845 1.35352 53.9251 1.69727C54.0605 2.04622 54.0814 2.45768 53.9876 2.92643C53.873 3.4681 53.6387 3.92643 53.2793 4.30143C52.9147 4.66602 52.4512 4.9056 51.8835 5.0306L53.1335 7.6556H52.1751L50.9668 5.11393H49.321L48.821 7.6556H47.9043ZM49.4876 4.2806H51.071C51.6387 4.2806 52.0918 4.15039 52.4251 3.88477C52.7689 3.62435 52.9928 3.27018 53.0918 2.82227C53.1751 2.39518 53.1022 2.05143 52.8835 1.80143C52.6751 1.55143 52.2793 1.42643 51.696 1.42643H50.071L49.4876 4.2806Z" fill="#F8F3EB"></path><path d="M60.5359 7.7806C59.8119 7.7806 59.2026 7.62435 58.7026 7.30143C58.213 6.98372 57.8692 6.54622 57.6609 5.98893C57.4526 5.43685 57.4161 4.79102 57.5567 4.05143C57.7078 3.3431 57.9838 2.7181 58.3901 2.17643C58.8067 1.63477 59.3119 1.21289 59.9109 0.905599C60.5203 0.603516 61.1713 0.447266 61.8692 0.447266C62.6036 0.447266 63.2234 0.608724 63.7234 0.926432C64.2234 1.24935 64.5776 1.69206 64.7859 2.25977C64.9942 2.81706 65.0203 3.45768 64.8692 4.17643C64.7286 4.90039 64.4526 5.5306 64.0359 6.07227C63.6297 6.61393 63.1244 7.04102 62.5151 7.3431C61.9161 7.63477 61.2547 7.7806 60.5359 7.7806ZM58.4734 4.17643C58.3588 4.7181 58.3744 5.19727 58.5151 5.61393C58.6505 6.02018 58.9005 6.33789 59.2651 6.57227C59.6244 6.79622 60.0672 6.9056 60.5984 6.9056C61.1505 6.9056 61.6609 6.79102 62.1192 6.55143C62.588 6.30143 62.9838 5.96289 63.3067 5.5306C63.6401 5.10352 63.8536 4.60872 63.9526 4.05143C64.0776 3.50977 64.0619 3.04102 63.9109 2.63477C63.7703 2.2181 63.5203 1.90039 63.1609 1.67643C62.8119 1.45768 62.3744 1.3431 61.8484 1.3431C61.2911 1.3431 60.7755 1.4681 60.3067 1.7181C59.8328 1.95768 59.4369 2.29102 59.1192 2.7181C58.7963 3.13477 58.5828 3.62435 58.4734 4.17643Z" fill="#F8F3EB"></path><path d="M65.7773 7.6556L67.194 0.572266H71.2565L71.0898 1.4056H67.944L67.444 3.86393H70.3398L70.1732 4.67643H67.2982L66.694 7.6556H65.7773Z" fill="#F8F3EB"></path><mask id="mask0_186_1288" style="mask-type:luminance" maskUnits="userSpaceOnUse" x="12" y="16" width="11" height="11"><path d="M12 16H22.6667V26.6667H12V16Z" fill="white"></path></mask><g mask="url(#mask0_186_1288)"><mask id="mask1_186_1288" style="mask-type:luminance" maskUnits="userSpaceOnUse" x="13" y="16" width="9" height="10"><path d="M17.4264 16.916L21.8327 21.3275L17.4212 25.7389L13.0098 21.3327L17.4264 16.916Z" fill="white"></path></mask><g mask="url(#mask1_186_1288)"><path d="M17.4271 16.916L21.8333 21.3275L17.4271 25.7337L13.0156 21.3275L17.4271 16.916Z" fill="#E76D57"></path></g></g><mask id="mask2_186_1288" style="mask-type:luminance" maskUnits="userSpaceOnUse" x="12" y="44" width="11" height="10"><path d="M12 44H22.6667V53.3333H12V44Z" fill="white"></path></mask><g mask="url(#mask2_186_1288)"><mask id="mask3_186_1288" style="mask-type:luminance" maskUnits="userSpaceOnUse" x="13" y="44" width="9" height="9"><path d="M17.4264 44.1406L21.8327 48.5469L17.4212 52.9583L13.0098 48.5521L17.4264 44.1406Z" fill="white"></path></mask><g mask="url(#mask3_186_1288)"><path d="M17.4271 44.1406L21.8333 48.5469L17.4271 52.9531L13.0156 48.5469L17.4271 44.1406Z" fill="#EC8471"></path></g></g><mask id="mask4_186_1288" style="mask-type:luminance" maskUnits="userSpaceOnUse" x="5" y="20" width="9" height="8"><path d="M5.33398 20H13.334V28H5.33398V20Z" fill="white"></path></mask><g mask="url(#mask4_186_1288)"><mask id="mask5_186_1288" style="mask-type:luminance" maskUnits="userSpaceOnUse" x="5" y="20" width="9" height="8"><path d="M6.86003 20.334L13.0163 21.3132L12.0371 27.4746L5.88086 26.5007L6.86003 20.334Z" fill="white"></path></mask><g mask="url(#mask5_186_1288)"><path d="M6.86068 20.334L13.0169 21.3132L12.043 27.4694L5.88672 26.4902L6.86068 20.334Z" fill="#EC8471"></path></g></g><mask id="mask6_186_1288" style="mask-type:luminance" maskUnits="userSpaceOnUse" x="0" y="25" width="10" height="11"><path d="M0 25.334H9.33333V36.0007H0V25.334Z" fill="white"></path></mask><g mask="url(#mask6_186_1288)"><mask id="mask7_186_1288" style="mask-type:luminance" maskUnits="userSpaceOnUse" x="0" y="26" width="9" height="9"><path d="M0.412109 29.4023L5.96419 26.5742L8.79753 32.1315L3.24544 34.9648L0.412109 29.4023Z" fill="white"></path></mask><g mask="url(#mask7_186_1288)"><path d="M0.412109 29.4023L5.96419 26.5742L8.79232 32.1263L3.24023 34.9544L0.412109 29.4023Z" fill="#E76D57"></path></g></g><mask id="mask8_186_1288" style="mask-type:luminance" maskUnits="userSpaceOnUse" x="0" y="34" width="10" height="10"><path d="M0 34.666H9.33333V43.9993H0V34.666Z" fill="white"></path></mask><g mask="url(#mask8_186_1288)"><mask id="mask9_186_1288" style="mask-type:luminance" maskUnits="userSpaceOnUse" x="0" y="34" width="9" height="10"><path d="M0.412109 40.5143L3.24023 34.957L8.80273 37.7904L5.9694 43.3477L0.412109 40.5143Z" fill="white"></path></mask><g mask="url(#mask9_186_1288)"><path d="M0.412109 40.5143L3.24023 34.957L8.79232 37.7904L5.96419 43.3424L0.412109 40.5143Z" fill="#EC8471"></path></g></g><mask id="mask10_186_1288" style="mask-type:luminance" maskUnits="userSpaceOnUse" x="5" y="41" width="9" height="10"><path d="M5.33398 41.334H13.334V50.6673H5.33398V41.334Z" fill="white"></path></mask><g mask="url(#mask10_186_1288)"><mask id="mask11_186_1288" style="mask-type:luminance" maskUnits="userSpaceOnUse" x="5" y="42" width="9" height="8"><path d="M6.85482 49.5736L5.88086 43.4173L12.0423 42.4434L13.0215 48.5996L6.85482 49.5736Z" fill="white"></path></mask><g mask="url(#mask11_186_1288)"><path d="M6.85482 49.5736L5.88086 43.4173L12.0371 42.4434L13.0111 48.5996L6.85482 49.5736Z" fill="#E76D57"></path></g></g><mask id="mask12_186_1288" style="mask-type:luminance" maskUnits="userSpaceOnUse" x="21" y="41" width="9" height="10"><path d="M21.334 41.334H29.334V50.6673H21.334V41.334Z" fill="white"></path></mask><g mask="url(#mask12_186_1288)"><mask id="mask13_186_1288" style="mask-type:luminance" maskUnits="userSpaceOnUse" x="21" y="42" width="8" height="8"><path d="M27.9902 49.5729L21.834 48.599L22.8132 42.4375L28.9694 43.4115L27.9902 49.5729Z" fill="white"></path></mask><g mask="url(#mask13_186_1288)"><path d="M27.9902 49.5736L21.834 48.5996L22.8079 42.4434L28.9642 43.4173L27.9902 49.5736Z" fill="#E76D57"></path></g></g><mask id="mask14_186_1288" style="mask-type:luminance" maskUnits="userSpaceOnUse" x="25" y="34" width="10" height="10"><path d="M25.334 34.666H34.6673V43.9993H25.334V34.666Z" fill="white"></path></mask><g mask="url(#mask14_186_1288)"><mask id="mask15_186_1288" style="mask-type:luminance" maskUnits="userSpaceOnUse" x="26" y="34" width="9" height="10"><path d="M34.4382 40.5098L28.8861 43.3379L26.0527 37.7806L31.6048 34.9473L34.4382 40.5098Z" fill="white"></path></mask><g mask="url(#mask15_186_1288)"><path d="M34.4388 40.5104L28.8867 43.3385L26.0586 37.7865L31.6107 34.9531L34.4388 40.5104Z" fill="#EC8471"></path></g></g><mask id="mask16_186_1288" style="mask-type:luminance" maskUnits="userSpaceOnUse" x="25" y="25" width="10" height="11"><path d="M25.334 25.334H34.6673V36.0007H25.334V25.334Z" fill="white"></path></mask><g mask="url(#mask16_186_1288)"><mask id="mask17_186_1288" style="mask-type:luminance" maskUnits="userSpaceOnUse" x="26" y="26" width="9" height="9"><path d="M34.4375 29.3958L31.6094 34.9531L26.0469 32.1198L28.8802 26.5625L34.4375 29.3958Z" fill="white"></path></mask><g mask="url(#mask17_186_1288)"><path d="M34.4368 29.3965L31.6087 34.9538L26.0566 32.1204L28.8848 26.5684L34.4368 29.3965Z" fill="#E76D57"></path></g></g><mask id="mask18_186_1288" style="mask-type:luminance" maskUnits="userSpaceOnUse" x="21" y="20" width="9" height="8"><path d="M21.334 20H29.334V28H21.334V20Z" fill="white"></path></mask><g mask="url(#mask18_186_1288)"><mask id="mask19_186_1288" style="mask-type:luminance" maskUnits="userSpaceOnUse" x="21" y="20" width="8" height="8"><path d="M27.9948 20.3379L28.9688 26.4941L22.8073 27.4681L21.8281 21.3118L27.9948 20.3379Z" fill="white"></path></mask><g mask="url(#mask19_186_1288)"><path d="M27.9941 20.3379L28.9681 26.4941L22.8118 27.4681L21.8379 21.3118L27.9941 20.3379Z" fill="#EC8471"></path></g></g><path d="M50.1348 45.4368V44.166L51.8014 43.916C52.1348 43.8639 52.3483 43.7493 52.4473 43.5827C52.5566 43.4056 52.6139 43.0618 52.6139 42.5618V29.5618C52.6139 29.0931 52.5566 28.7858 52.4473 28.6452C52.3327 28.4941 52.0983 28.3848 51.7389 28.3118L50.1348 28.0618V26.791H57.7389V28.0618L56.0514 28.3118C55.7285 28.3535 55.515 28.4733 55.4056 28.666C55.3066 28.8483 55.2598 29.1816 55.2598 29.666V42.666C55.2598 43.1139 55.3118 43.416 55.4264 43.5827C55.5358 43.7389 55.765 43.8483 56.1139 43.916L57.7389 44.166V45.4368H50.1348Z" fill="#F8F3EB"></path><path d="M61.0742 45.4368V44.166L62.5742 43.916C62.9492 43.8639 63.1784 43.7233 63.2617 43.4993C63.3451 43.265 63.3919 42.9525 63.4076 42.5618L64.2201 29.5618C64.2201 29.0931 64.1628 28.7858 64.0534 28.6452C63.9388 28.4941 63.7096 28.3848 63.3659 28.3118L61.8659 28.0618V26.791H68.0534L72.5951 40.291L72.7201 40.0202L77.4701 26.791H83.6367V28.0618L81.9492 28.3118C81.6263 28.3431 81.4128 28.4525 81.3034 28.6452C81.2044 28.8275 81.1576 29.166 81.1576 29.666L81.9492 42.666C81.9492 43.1139 82.0013 43.416 82.1159 43.5827C82.2409 43.7389 82.4701 43.8483 82.8034 43.916L84.4284 44.166V45.4368H76.8451V44.166L78.4909 43.916C78.8242 43.8639 79.043 43.7493 79.1576 43.5827C79.2669 43.4056 79.3242 43.0618 79.3242 42.5618L78.5117 29.0827V28.8535L73.5326 42.416H70.8659L66.0742 28.8327V29.041L65.2826 42.666C65.2513 43.1139 65.293 43.416 65.4076 43.5827C65.5169 43.7389 65.7617 43.8483 66.1367 43.916L67.6159 44.166V45.4368H61.0742Z" fill="#F8F3EB"></path><path d="M96.3581 45.8118C94.5664 45.8118 92.9935 45.4108 91.6497 44.6035C90.3164 43.8014 89.2799 42.666 88.5456 41.2077C87.806 39.7493 87.4414 38.041 87.4414 36.0827C87.4414 34.1556 87.7956 32.4681 88.5039 31.0202C89.2122 29.5618 90.1966 28.4316 91.4622 27.6243C92.7383 26.8223 94.2227 26.416 95.9206 26.416C96.8372 26.416 97.6706 26.5566 98.4206 26.8327C99.1706 27.0983 99.806 27.4993 100.337 28.041L100.608 26.3535H101.9L102.941 32.5618L101.504 32.8952C100.962 31.2025 100.259 29.9785 99.3997 29.2285C98.5352 28.4681 97.3893 28.0827 95.9622 28.0827C94.7383 28.0827 93.7018 28.39 92.8581 28.9993C92.0091 29.5983 91.3685 30.4889 90.9414 31.666C90.5091 32.8483 90.2956 34.3118 90.2956 36.0618C90.2956 37.6191 90.556 38.9941 91.0872 40.1868C91.6289 41.3848 92.3685 42.3118 93.3164 42.9785C94.2591 43.6452 95.3633 43.9785 96.6289 43.9785C97.4049 43.9785 98.1081 43.8743 98.7331 43.666C99.3685 43.4577 99.9622 43.1348 100.504 42.6868C101.046 42.2441 101.556 41.6764 102.046 40.9785L103.296 41.8952C102.806 42.6868 102.202 43.3848 101.483 43.9785C100.775 44.5618 99.9831 45.015 99.1081 45.3327C98.2331 45.6504 97.3164 45.8118 96.3581 45.8118Z" fill="#F8F3EB"></path></svg>