<svg xmlns="http://www.w3.org/2000/svg" width="28" height="27" viewBox="0 0 28 27" fill="none"><mask id="mask0_75_1284" style="mask-type:luminance" maskUnits="userSpaceOnUse" x="0" y="0" width="28" height="27"><path d="M0.771484 0.635742H27.7611V26.6253H0.771484V0.635742Z" fill="white"></path></mask><g mask="url(#mask0_75_1284)"><path fill-rule="evenodd" clip-rule="evenodd" d="M17.6204 0.635742C20.3184 1.34408 22.6882 2.8597 24.4486 4.91699C22.9225 4.91178 21.3861 4.91178 19.8444 4.90658C19.3496 3.40658 18.6465 1.84928 17.6204 0.635742ZM27.6465 12.667C25.4694 12.6722 23.2871 12.6722 21.11 12.667C21.0475 10.6097 20.7975 8.66178 20.4017 6.9222C22.235 6.9222 24.0632 6.92741 25.8757 6.93262C26.8704 8.64095 27.4954 10.5889 27.6465 12.667ZM27.6465 14.693C27.4954 16.7712 26.8704 18.7191 25.8757 20.4274C24.0632 20.4326 22.235 20.4378 20.4017 20.4378C20.7975 18.6982 21.0475 16.7503 21.11 14.6878C23.2871 14.6826 25.4694 14.6878 27.6465 14.693ZM17.6204 26.7191C18.6465 25.5107 19.3496 23.9535 19.8444 22.4482C21.3861 22.4482 22.9225 22.443 24.4486 22.443C22.6882 24.4951 20.3184 26.016 17.6204 26.7191ZM10.8027 26.7191C8.10482 26.016 5.72982 24.4951 3.9694 22.4378C5.50065 22.443 7.0319 22.443 8.57878 22.4482C9.06836 23.9535 9.77149 25.5107 10.8027 26.7191ZM0.771484 14.693C2.95378 14.6878 5.13086 14.6826 7.31315 14.6878C7.37565 16.7503 7.62565 18.6982 8.02148 20.4378C6.18294 20.4326 4.35482 20.4274 2.54232 20.4222C1.55273 18.7139 0.927734 16.7712 0.771484 14.693ZM2.54232 6.93262C4.36003 6.92741 6.18294 6.9222 8.02148 6.9222C7.62565 8.66178 7.37565 10.6097 7.31315 12.6722C5.13086 12.6774 2.95378 12.667 0.776693 12.6618C0.927734 10.5837 1.55273 8.64095 2.54232 6.93262ZM3.9694 4.9222C5.73503 2.8597 8.10482 1.34408 10.8027 0.635742C9.77149 1.84928 9.06836 3.40658 8.57878 4.91178C7.0319 4.91178 5.50065 4.91699 3.9694 4.9222ZM14.209 0.823242C12.485 0.823242 11.2246 3.50032 10.7038 4.90658C13.0423 4.90658 15.3809 4.90658 17.7194 4.90658C17.1934 3.50032 15.9382 0.823242 14.209 0.823242ZM19.0996 12.667C19.0319 10.5732 18.7611 8.62012 18.3392 6.91699C15.584 6.91699 12.834 6.91699 10.084 6.91699C9.6569 8.62012 9.39128 10.5732 9.32357 12.667C12.584 12.6618 15.8392 12.6618 19.0996 12.667ZM10.084 20.4378C12.834 20.443 15.584 20.443 18.3392 20.4378C18.7611 18.7399 19.0319 16.7868 19.0996 14.693C15.8392 14.693 12.584 14.693 9.32357 14.693C9.39128 16.7816 9.6569 18.7347 10.084 20.4378ZM10.7038 22.4482C11.2246 23.8597 12.485 26.5368 14.209 26.5368C15.9382 26.5368 17.1934 23.8597 17.7194 22.4482C15.3809 22.4535 13.0423 22.4535 10.7038 22.4482ZM20.8236 3.09928C20.5684 2.93783 20.3027 2.78678 20.0319 2.64616C20.2298 3.06283 20.4017 3.4847 20.5579 3.90658L21.9694 3.91178C21.6048 3.62012 21.2194 3.34928 20.8236 3.09928ZM26.1309 9.98991C25.9121 9.27637 25.6257 8.58887 25.2819 7.93262L21.6309 7.9222C21.7298 8.46908 21.8132 9.02116 21.8809 9.58887C21.9642 10.2503 22.0267 10.9482 22.0684 11.667C22.8392 11.667 23.61 11.6722 24.3809 11.6722C25.0944 11.6722 25.8079 11.6722 26.5215 11.667C26.4277 11.0941 26.2975 10.5368 26.1309 9.98991ZM26.1309 17.3649C26.2975 16.8285 26.4277 16.266 26.5215 15.693C25.8079 15.693 25.0944 15.6878 24.3809 15.6878C23.61 15.6878 22.8392 15.6878 22.0684 15.6878C22.0267 16.4118 21.9642 17.1045 21.8809 17.7712C21.8132 18.3337 21.7298 18.891 21.6309 19.4326L25.2819 19.4274C25.6257 18.7712 25.9069 18.0837 26.1309 17.3649ZM20.8236 24.2555C21.2246 24.0107 21.6048 23.7399 21.9694 23.4482H20.5579C20.4017 23.8701 20.2298 24.2972 20.0319 24.7139C20.3027 24.5732 20.5684 24.4222 20.8236 24.2555ZM7.5944 24.2555C7.85482 24.417 8.11524 24.5732 8.38607 24.7139C8.19336 24.292 8.01628 23.8701 7.86523 23.4482L6.44857 23.443C6.81315 23.7399 7.19857 24.0107 7.5944 24.2555ZM2.29232 17.3649C2.51107 18.0785 2.79753 18.7712 3.13607 19.4274L6.79232 19.4326C6.69336 18.891 6.61003 18.3337 6.53711 17.7712C6.45898 17.1045 6.39648 16.4118 6.35482 15.6878C5.58398 15.6878 4.81315 15.6878 4.04232 15.6878C3.32878 15.6878 2.61524 15.6878 1.90169 15.693C1.99024 16.266 2.12565 16.8232 2.29232 17.3649ZM2.29232 9.98991C2.12565 10.5316 1.99544 11.0889 1.90169 11.6618C3.38607 11.667 4.87044 11.6722 6.35482 11.6722C6.39648 10.9482 6.45898 10.2555 6.53711 9.58887C6.61003 9.02637 6.69336 8.46908 6.79232 7.92741L3.13607 7.93262C2.79753 8.58887 2.51107 9.27637 2.29232 9.98991ZM7.5944 3.09928C7.19857 3.34928 6.81836 3.62012 6.44857 3.91178H7.86523C8.01628 3.48991 8.19336 3.06283 8.38607 2.64616C8.11524 2.78678 7.85482 2.93783 7.5944 3.09928ZM14.209 1.82845C13.8496 1.82845 13.4746 2.12012 13.1257 2.52637C12.7819 2.9222 12.485 3.41699 12.235 3.90658H16.1882C15.9382 3.41699 15.6361 2.9222 15.2923 2.52637C14.9434 2.12012 14.5684 1.82845 14.209 1.82845ZM10.8809 7.91699C10.7507 8.52637 10.6465 9.16178 10.5579 9.81283C10.4798 10.4118 10.4173 11.0316 10.3757 11.667C12.9329 11.6618 15.4902 11.6618 18.0475 11.6618C18.0059 11.0316 17.9434 10.4118 17.8652 9.81283C17.7767 9.16178 17.6673 8.52637 17.5371 7.91699H10.8809ZM10.3757 15.693C10.4173 16.3285 10.4798 16.9482 10.5579 17.5472C10.6465 18.1982 10.7507 18.8285 10.8809 19.4378C11.9902 19.4378 13.0996 19.4378 14.209 19.4378H17.5371C17.6673 18.8285 17.7767 18.1982 17.8652 17.5472C17.9434 16.9482 18.0059 16.3285 18.0475 15.693C15.4902 15.6982 12.9329 15.6982 10.3757 15.693ZM12.235 23.4535C12.485 23.943 12.7819 24.4326 13.1257 24.8337C13.4746 25.2399 13.8496 25.5264 14.209 25.5264C14.5684 25.5264 14.9434 25.2399 15.2923 24.8337C15.6361 24.4326 15.9382 23.943 16.1882 23.4535H12.235Z" fill="#F8F3EB"></path></g></svg>